<?xml version="1.0" encoding="utf-8"?>
<!-- Generator: Adobe Illustrator 24.3.0, SVG Export Plug-In . SVG Version: 6.00 Build 0)  -->
<svg version="1.1" id="Skanska_Logotype" xmlns="http://www.w3.org/2000/svg" xmlns:xlink="http://www.w3.org/1999/xlink" x="0px"
	 y="0px" viewBox="0 0 963.7795 143.0309" style="enable-background:new 0 0 963.7795 143.0309;" xml:space="preserve">
<style type="text/css">
	.st0{fill:#143275;}
</style>
<g>
	<path class="st0" d="M77.3195,56.3832c27.5698,0,44.5676,15.5469,44.5676,42.9094c0,27.3622-16.9978,43.7383-44.5676,43.7383
		H5.8041v-30.2645h71.1008c9.3282,0,14.0959-6.6333,14.0959-13.4738c0-6.8408-4.7677-13.4741-14.0959-13.4741H44.5676
		C16.9978,85.8185,0,69.8573,0,43.324C0,16.1687,16.9978,0,44.5676,0h67.3696v30.2645H44.9822
		c-9.3282,0-14.0959,6.4261-14.0959,13.0595s4.7677,13.0592,14.0959,13.0592H77.3195z"/>
	<polygon class="st0" points="220.184,0 259.1547,0 204.2225,70.4791 259.1547,143.0309 218.733,143.0309 173.7508,83.3311 
		173.7508,143.0309 140.5842,143.0309 140.5842,0 173.7508,0 173.7508,59.9073 	"/>
	<path class="st0" d="M353.4721,0h-42.08l-50.1645,143.0309h34.6176l9.5355-29.2281h54.3101l9.5355,29.2281h34.4102L353.4721,0z
		 M314.7087,84.7821l17.6197-54.3104l17.827,54.3104H314.7087z"/>
	<polygon class="st0" points="507.0748,89.3426 507.0748,0 540.2413,0 540.2413,143.0309 505.8312,143.0309 449.0334,53.4812 
		449.0334,143.0309 415.8668,143.0309 415.8668,0 450.277,0 	"/>
	<path class="st0" d="M637.4611,56.3832c27.5696,0,44.5676,15.5469,44.5676,42.9094c0,27.3622-16.9979,43.7383-44.5676,43.7383
		h-71.5157v-30.2645h71.1011c9.3279,0,14.0956-6.6333,14.0956-13.4738c0-6.8408-4.7677-13.4741-14.0956-13.4741h-32.3376
		c-27.5696,0-44.5676-15.9612-44.5676-42.4945C560.1413,16.1687,577.1392,0,604.7089,0h67.3696v30.2645h-66.955
		c-9.3279,0-14.0956,6.4261-14.0956,13.0595s4.7677,13.0592,14.0956,13.0592H637.4611z"/>
	<polygon class="st0" points="780.3271,0 819.2977,0 764.3656,70.4791 819.2977,143.0309 778.876,143.0309 733.8939,83.3311 
		733.8939,143.0309 700.7273,143.0309 700.7273,0 733.8939,0 733.8939,59.9073 	"/>
	<path class="st0" d="M913.615,0h-42.08l-50.1644,143.0309h34.6176l9.5354-29.2281h54.3102l9.5354,29.2281h34.4104L913.615,0z
		 M874.8517,84.7821l17.6197-54.3104l17.827,54.3104H874.8517z"/>
</g>
</svg>
